<svg width="48" height="48" viewBox="0 0 48 48" fill="none" xmlns="http://www.w3.org/2000/svg">
<circle cx="24" cy="24" r="24" fill="#B065FF" fill-opacity="0.1"/>
<path d="M37.3337 20C37.3337 15.2267 33.7737 11.3333 29.3337 11.3333C27.9159 11.3333 26.5413 11.6663 25.2917 12.2858C24.042 12.9054 22.9567 13.7854 22.1337 14.8667C20.9419 13.9142 19.5441 13.2505 18.0315 12.9254C16.5188 12.6002 14.9317 12.6258 13.424 12.9996C11.9163 13.3733 10.5367 14.0858 9.3905 15.0864C8.24432 16.0871 7.35163 17.3468 6.78696 18.7618C6.22229 20.1769 5.99996 21.716 6.13063 23.2384C6.2613 24.7608 6.73979 26.2361 7.53488 27.545C8.32997 28.8539 9.42168 29.967 10.7297 30.7629C11.168 31.0264 11.6631 31.229 12.1937 31.3653C12.3995 31.4242 12.6083 31.4533 12.817 31.4533H35.3337C36.0703 31.4533 36.667 30.8767 36.667 30.1333C36.667 29.4 36.0703 28.8 35.3337 28.8C35.0441 28.8 34.7663 28.7758 34.5027 28.7308C35.0673 27.6441 35.3337 26.4382 35.3337 25.1333C35.3337 23.011 34.4267 21.1467 33.0003 20" stroke="#B065FF" stroke-width="2" stroke-linecap="round" stroke-linejoin="round"/>
</svg>
