<svg width="70" height="66" viewBox="0 0 70 66" fill="none" xmlns="http://www.w3.org/2000/svg">
<path d="M69.9226 38.7011C69.7921 38.8647 69.651 39.0038 69.4784 39.1306C68.7057 39.7013 65.4107 41.9449 64.697 42.1801C64.1601 42.356 63.8717 42.2026 63.4443 41.8754C63.0358 40.6809 60.4904 37.5456 60.4988 36.5107C60.5072 35.4369 62.0905 35.1158 62.6084 36.0587L63.9138 38.1694C65.076 31.0376 63.5285 23.6011 59.604 17.498C55.7238 11.4625 49.7718 7.01615 42.8303 4.75615C41.746 4.40232 38.5963 4.17734 39.3143 2.5391C39.8133 1.40194 41.8092 2.21595 42.7271 2.46956C52.3362 5.12225 60.3767 12.3808 64.1138 21.3349C66.3982 26.8101 66.9856 32.864 66.0992 38.6991C67.2761 38.1448 68.8004 36.1589 69.9184 37.7705V38.6991L69.9226 38.7011Z" fill="white" fill-opacity="0.15"/>
<path d="M10.7581 47.7166C10.4191 47.6572 9.80646 47.2093 9.73698 46.8514C9.59381 46.1131 9.67171 43.7222 9.73698 42.8795C9.87383 41.0695 10.6044 38.7952 11.5897 37.2551C13.3414 34.5124 15.3921 34.4899 18.1523 33.2894C19.0934 32.8803 19.984 32.3486 20.9251 31.9375C20.2956 30.8187 19.5629 29.8247 19.085 28.6242C17.2406 23.9794 17.4996 17.541 23.38 16.097C26.4686 15.3382 29.8583 15.9416 32.0627 18.2548C33.3638 18.0605 34.6881 18.0605 35.9892 18.2548C41.7391 13.2255 50.426 15.9355 50.0007 24.1921C49.8554 27.0043 48.6364 29.6018 47.1289 31.9395C48.1627 32.3874 49.1375 32.9826 50.1754 33.4244C51.9524 34.1791 53.7841 34.4531 55.2516 35.7846C57.098 37.4596 58.1465 40.7443 58.317 43.1475C58.3739 43.9369 58.4455 46.1499 58.2897 46.831C58.2097 47.1787 57.6307 47.7206 57.2938 47.7206H50.1291C50.0744 48.4549 50.4049 49.5082 49.5249 49.8518C39.4021 50.1361 29.2225 49.8947 19.0786 49.9745C17.6891 49.8211 17.7691 48.8476 17.7817 47.7206H10.7539L10.7581 47.7166ZM29.6604 18.9501C27.6582 17.7619 24.3695 17.5553 22.3841 18.8397C19.2281 20.8829 20.1629 26.2006 21.6936 29.0066C22.8536 31.1316 25.0222 33.2689 27.6055 31.7964C26.0412 28.4074 25.2959 23.2431 28.0898 20.2714C28.5698 19.7621 29.2162 19.484 29.6604 18.9481V18.9501ZM38.3957 18.9501C39.3053 19.7273 40.059 20.2468 40.6885 21.294C42.2549 23.9017 42.0275 27.123 41.1601 29.9209C41.0633 30.2338 40.4295 31.6348 40.4527 31.7289C40.5201 32.0152 41.8781 32.322 42.1623 32.3261C47.1226 32.3977 51.066 19.036 43.6129 18.0543C41.8275 17.8191 39.9327 18.0339 38.3936 18.9501H38.3957ZM32.7701 20.3102C22.98 21.4515 31.9069 42.4173 38.1473 31.3668C40.9917 26.3274 40.2674 19.4369 32.7701 20.3102ZM21.1988 34.3243L24.7906 36.1486C26.0433 35.5985 27.6561 35.0728 28.7993 34.3529C29.3214 34.0236 28.9888 33.6575 28.6603 33.6841C28.3719 33.7087 27.4287 34.3018 26.7992 34.3979C25.8286 34.5472 25.079 34.4654 24.1632 34.1607C23.8263 34.0482 22.7357 33.4121 22.6515 33.4203C22.4852 33.4346 21.3756 34.1136 21.1967 34.3243H21.1988ZM46.8573 34.3243C46.6952 34.1238 45.5351 33.4387 45.4004 33.4182C45.3162 33.406 44.2277 34.0482 43.8908 34.1607C42.975 34.4654 42.2276 34.5493 41.2549 34.3979C40.6274 34.2997 39.6821 33.7066 39.3937 33.6841C39.0652 33.6575 38.7326 34.0236 39.2547 34.3529C39.7432 34.6597 42.855 36.1364 43.2634 36.1486L46.8552 34.3243H46.8573ZM11.9182 45.4627H17.9228C18.1186 42.5073 19.2197 38.924 22.0178 37.3737C22.1273 37.2163 18.9439 35.4123 18.6976 35.4205C18.5123 35.4267 15.531 36.527 15.2342 36.6845C12.4677 38.155 11.794 42.6955 11.9182 45.4627ZM56.1379 45.4627C56.2727 42.7077 55.5737 38.1448 52.8219 36.6845C52.5103 36.5188 49.4343 35.3858 49.2428 35.3919C49.0638 35.398 46.3541 36.9258 46.1225 37.1017C45.8046 37.3431 46.6678 37.6826 46.9205 37.9096C48.9817 39.7687 49.9333 42.7855 50.1312 45.4627H56.1358H56.1379ZM38.5305 36.3184C38.1199 36.3573 37.4967 35.6966 37.2335 35.6966C37.1388 35.6966 35.9598 36.3961 35.5282 36.5147C34.3428 36.8399 33.2712 36.8031 32.1174 36.3797C31.8374 36.2775 30.8921 35.6987 30.8184 35.6946C30.7342 35.6905 29.5088 36.3736 29.3867 36.5781L34.0733 38.9363L38.4462 36.5904L38.5326 36.3163L38.5305 36.3184ZM47.95 47.7166V45.1314C47.95 43.5811 46.5773 40.3475 45.2656 39.3863C44.6782 38.9547 41.9939 37.8626 41.2612 37.6969C41.118 37.6642 40.998 37.613 40.8527 37.6928C39.6442 38.245 34.9723 41.4151 33.9702 41.3477C33.568 41.3211 31.3405 40.0714 30.7994 39.783C29.5172 39.102 28.2919 38.3146 27.0034 37.6437C24.9148 38.5559 22.8747 38.6786 21.5841 40.7279C21.0135 41.634 20.1082 44.1067 20.1082 45.1293V47.7145H47.95V47.7166Z" fill="white" fill-opacity="0.15"/>
<path d="M12.1922 58.4561C11.9543 59.3499 12.8723 61.5997 11.6532 61.976C10.5732 62.3094 10.1079 61.5874 10.011 60.6425C9.88259 59.399 9.77101 57.7873 9.731 56.5397C9.691 55.2921 9.62784 54.7317 11.0279 54.607C12.1459 54.5068 15.4282 54.4638 16.4599 54.6438C17.4368 54.8156 17.7715 56.0407 16.902 56.6011C15.9104 57.2413 14.7545 56.4866 13.6955 56.7995C15.8872 58.5052 18.3 59.9942 20.8791 61.0904C31.7114 65.6922 44.8554 63.7492 53.6855 56.1389C54.254 55.648 55.8183 53.8482 56.3109 53.6518C57.4457 53.1998 58.3679 54.2327 57.7847 55.2165C57.4521 55.7769 55.7762 57.2249 55.1867 57.7301C43.0553 68.0933 24.6836 68.4083 12.1943 58.4582L12.1922 58.4561Z" fill="white" fill-opacity="0.15"/>
<path d="M22.019 5.42463C13.1089 8.56 5.92321 16.3238 3.39041 25.1776C2.10191 29.6813 1.88715 34.2319 2.70405 38.8358C2.88301 39.84 3.78833 42.462 3.53358 43.2167C3.25356 44.043 1.87452 43.9796 1.44713 42.9754C0.94604 41.7994 0.52917 39.5169 0.339684 38.2181C-1.86257 23.1733 6.81169 8.51705 21.4737 3.30167C21.5411 2.99079 21.4295 3.08896 21.2969 3.00511C20.7242 2.6431 19.1599 2.1686 18.8146 1.70842C18.143 0.812601 19.0083 -0.242747 20.1115 0.0497238C20.7621 0.221525 24.4823 2.06429 25.1161 2.47948C25.7498 2.89466 25.8193 3.23417 25.5961 3.92751C25.3729 4.62085 23.6023 7.35739 23.0843 8.11414C22.6633 8.72976 22.3285 9.30447 21.44 8.97723C19.5725 8.29003 22.2822 5.66393 22.019 5.42259V5.42463Z" fill="white" fill-opacity="0.15"/>
</svg>
