<svg width="32" height="32" viewBox="0 0 32 32" fill="none" xmlns="http://www.w3.org/2000/svg">
<circle cx="16" cy="16" r="16" fill="white" fill-opacity="0.1"/>
<path d="M12.6667 14.6667H15.3333V22.6667H12.6667V14.6667Z" fill="white"/>
<path d="M14 10.6667C13.2667 10.6667 12.6667 10.0667 12.6667 9.33333C12.6667 8.6 13.2667 8 14 8C14.7333 8 15.3333 8.6 15.3333 9.33333C15.3333 10.0667 14.7333 10.6667 14 10.6667Z" fill="white"/>
<path d="M17.3333 14.6667H20V16C20.3707 15.3996 20.893 14.9084 21.5173 14.577C22.1416 14.2456 22.8468 14.0818 23.5583 14.1037C25.043 14.1481 26.3333 15.0294 26.3333 17.5333V22.6667H23.6667V18.1333C23.6667 17.0667 23.3333 16.6667 22.6667 16.6667C22.0667 16.6667 21.6667 17.0667 21.6667 18.1333V22.6667H19V14.6667H17.3333Z" fill="white"/>
</svg>

