<svg width="32" height="32" viewBox="0 0 32 32" fill="none" xmlns="http://www.w3.org/2000/svg">
<circle cx="16" cy="16" r="16" fill="white" fill-opacity="0.1"/>
<path d="M23.3333 11.3333C23.0041 11.458 22.6563 11.5369 22.3023 11.5683C22.6841 11.3402 23.0016 10.9839 23.2173 10.5594C23.433 10.1348 23.5412 9.65217 23.5303 9.1627C23.5194 8.67323 23.3897 8.19799 23.1517 7.78018C22.9137 7.36238 22.5739 7.01258 22.1643 6.75704C21.7547 6.5015 21.285 6.3468 20.7937 6.30752C20.3024 6.26824 19.8053 6.34586 19.3467 6.53421C18.8882 6.72256 18.4777 7.01633 18.1333 7.4L17.7333 7.86667L17.3333 7.4C16.989 7.01633 16.5784 6.72256 16.1198 6.53421C15.6613 6.34586 15.1642 6.26824 14.6729 6.30752C14.1816 6.3468 13.7119 6.5015 13.3023 6.75704C12.8927 7.01258 12.5529 7.36238 12.3149 7.78018C12.0769 8.19799 11.9472 8.67323 11.9363 9.1627C11.9254 9.65217 12.0336 10.1348 12.2493 10.5594C12.465 10.9839 12.7825 11.3402 13.1643 11.5683C12.8103 11.5369 12.4625 11.458 12.1333 11.3333C8.4 17.3333 10.6667 21.3333 10.6667 21.3333C10.6667 21.3333 14 24.6667 21.3333 24.6667C21.8488 24.6667 22.359 24.6186 22.8601 24.5235L23.3333 24.4267V24.0667C23.3333 23.3639 23.2081 22.6676 22.9641 22.0191C22.7201 21.3705 22.3569 20.7844 21.9056 20.2878C21.4542 19.7911 20.9197 19.3929 20.3276 19.1147C19.7355 18.8365 19.0945 18.6833 18.44 18.6667C18.44 18.6667 21.3333 18.6667 23.3333 11.3333Z" fill="white"/>
</svg>

