<svg width="31" height="56" viewBox="0 0 31 56" fill="none" xmlns="http://www.w3.org/2000/svg">
<path d="M0.802726 31.1012C0.242668 30.9834 -0.262196 30.0125 0.15176 29.5096L21.1061 0.61271C21.8674 -0.49026 23.356 -0.0191497 23.0719 1.34802L17.7538 20.0205L29.4728 20.1479C30.1206 20.2481 30.5767 20.9659 30.3381 21.5771L4.48937 55.5639C3.87574 56.4233 2.50076 55.9092 2.59004 54.9033L9.97794 31.1012H0.802726ZM3.05108 29.0767H11.7393C12.012 29.0767 12.6451 29.9266 12.3789 30.2942C10.8156 36.538 7.99744 42.8741 6.50883 49.0845C6.47961 49.2055 6.33513 49.5843 6.57376 49.5668L27.3544 22.2249C26.33 22.0896 25.2829 22.201 24.2521 22.1708C21.9031 22.1007 18.6629 22.3045 16.4779 22.0498C15.5444 21.94 15.2798 21.3479 15.5022 20.4916L19.4551 6.43951L3.05108 29.0767Z" fill="#F5F5F5" fill-opacity="0.15"/>
</svg>
