<svg width="85" height="58" viewBox="0 0 85 58" fill="none" xmlns="http://www.w3.org/2000/svg">
<path d="M0 4.03226C0.734505 1.96344 2.2386 0.378495 4.51227 0.00645161L60.6504 0C63.4809 0.354839 65.2503 2.51828 65.4827 5.24086V18.6817C68.2826 17.9462 67.7213 21.7613 68.7738 22.4581C69.5477 22.9699 71.4289 23.2645 72.2972 23.9333C73.4658 23.572 74.8976 22.2172 76.1627 22.6172C76.4455 22.7075 79.7694 25.8903 80.0018 26.2538C80.9336 27.7032 78.7279 29.3441 78.8156 30.3247C78.842 30.615 79.5063 31.6323 79.6795 32.043C79.8176 32.3699 80.2211 33.8667 80.2934 33.9376C80.7363 34.372 83.4748 34.4645 83.9089 35.4624C84.3913 36.572 83.8607 39.8796 83.9594 41.2258C83.6305 42.2237 80.7034 42.3914 80.2956 42.8645C80.1991 42.9763 79.9755 43.9656 79.8439 44.2731C79.6664 44.6882 78.8376 46.2344 78.8156 46.4753C78.717 47.5978 81.109 49.0559 79.8483 50.7183C79.5326 51.1355 76.463 54.0903 76.1605 54.1849C74.8559 54.5978 73.1413 52.7742 72.3213 52.843C71.6328 52.9011 69.7122 54.314 68.7233 54.2538C68.0765 55.0516 67.9537 57.6796 66.8443 57.9226C66.3225 58.0366 61.3958 58.0236 61.056 57.8731C60.1636 57.4796 59.9422 54.6839 59.5409 54.2882C59.4686 54.2172 57.9842 53.8344 57.6137 53.6839C57.1971 53.514 56.1447 52.8645 55.8574 52.8409C54.9738 52.7656 53.2943 54.6946 51.9043 54.1312C50.9461 53.7419 49.1088 51.1333 48.0783 50.4796C47.8064 50.3011 47.9774 49.4237 47.9226 49.4237H40.0448L42.1715 55.3054C42.5728 55.572 45.8353 55.2581 46.6816 55.3892C47.9708 55.5871 48.1112 57.2086 47.0982 57.8731L18.3714 57.8839C17.0931 57.3054 17.3672 55.5398 18.7858 55.3763C19.4545 55.2989 23.1139 55.5054 23.2849 55.3613L25.438 49.4237H4.84115C4.63067 49.4237 3.61552 49.0796 3.33487 48.9677C1.56987 48.2667 0.620492 46.9419 0 45.2366L0 4.03226ZM2.62668 5.07742V36.5484H43.9848C44.0264 36.5484 43.9716 35.9892 44.0571 35.7355C44.5198 34.3849 47.381 34.5355 47.8919 33.7011C48.4028 32.8667 48.6264 31.0968 49.339 30.1914C48.9465 28.972 47.5981 27.9011 47.9643 26.5269C48.098 26.0194 51.4636 22.7204 51.9854 22.5828C53.2176 22.2602 54.6208 23.686 55.8136 23.9161C56.5941 23.2 58.7428 22.9441 59.405 22.4559C60.35 21.7591 59.9246 17.8753 62.696 18.6796V5.07742C62.5381 3.62796 61.2818 2.65161 59.8303 2.57634H5.65678C4.15488 2.6129 2.84155 3.5828 2.62668 5.07742ZM81.3875 37.0473C81.2954 36.9419 79.0678 36.4538 78.66 36.2602C77.7632 35.8344 77.2831 33.4301 76.838 32.4129C76.5595 31.7763 75.8404 31.043 75.8097 30.3462C75.7724 29.4925 77.1888 27.7247 77.1076 27.314C77.0879 27.2086 75.7198 25.8301 75.5816 25.7505C74.766 25.2817 73.1698 27.0882 71.9179 26.7849C71.3105 26.6366 70.5168 26.0064 69.8591 25.7355C69.0851 25.4172 67.1863 24.972 66.7084 24.6409C65.9103 24.0882 65.7064 21.7419 65.3249 21.4903C64.9434 21.2387 63.3494 21.5269 62.7925 21.4064C62.2926 22.3269 62.2093 24.1935 61.227 24.7269C60.5846 25.0774 59.5037 25.2129 58.756 25.5226C58.118 25.7892 56.3508 26.8559 55.8684 26.886C55.1931 26.929 53.507 25.6839 52.7594 25.4839L50.9505 27.2064C50.7926 27.5505 52.5094 29.6989 52.2814 30.5892C52.1279 31.1892 51.2706 32.4344 50.9571 33.1677C50.6655 33.8538 50.3761 35.4473 49.9595 35.8925C49.4113 36.4774 46.9162 36.8968 46.7847 37.0452C46.7079 37.1333 46.7189 39.1247 46.7649 39.3656C46.8767 39.9527 48.9926 40.2237 49.6152 40.5957C50.4068 41.0667 50.5865 42.7333 50.9549 43.6279C51.229 44.2903 52.2617 45.8172 52.3143 46.3247C52.4042 47.1914 50.8803 49.0839 50.9154 49.5097C50.9242 49.615 52.288 50.9677 52.4239 51.0473C53.1299 51.4581 54.6384 50.0946 55.4233 49.9419C56.4056 49.7505 57.4887 50.7226 58.4227 51.114C59.1857 51.4323 60.9727 51.772 61.4616 52.1591C62.1676 52.7161 62.4987 55.1914 62.7048 55.3656C62.8122 55.4559 65.2152 55.4989 65.452 55.114C65.8445 54.4774 65.9848 52.6107 66.579 52.1527C66.9934 51.8322 68.594 51.5462 69.2495 51.2731C69.9051 51 71.5846 49.9613 72.1415 49.9075C73.0295 49.8215 74.8033 51.3161 75.3733 51.1742C75.6299 51.1097 77.1515 49.5957 77.066 49.2645C76.8972 48.6064 75.9894 47.5699 75.8513 46.8925C75.6584 45.9355 76.6231 44.7957 76.9936 43.9011C77.248 43.2882 77.8904 41.0409 78.1579 40.7785C78.6183 40.3269 81.1069 39.929 81.3195 39.6151C81.427 39.4581 81.4642 37.1462 81.3787 37.0495L81.3875 37.0473ZM43.9848 39.1247H2.62668V44.1957C2.62668 45.0107 3.98167 46.6903 4.84335 46.6903H49.157C49.6328 46.6903 48.9684 45.8774 48.8807 45.6731C48.6571 45.1591 47.9708 43.1183 47.7713 42.8968C47.3547 42.4301 45.5196 42.2366 44.8574 41.8925C43.6866 41.286 44.0177 40.2193 43.987 39.1226L43.9848 39.1247ZM26.2602 55.3828H39.2247L37.1089 49.5226C34.206 49.3118 31.1869 49.4667 28.2444 49.443L26.258 55.3828H26.2602Z" fill="#F5F5F5" fill-opacity="0.15"/>
<path d="M47.4291 19.6428L38.5756 14.7267C37.3806 13.4213 38.5712 11.8213 40.1893 12.4988C43.3926 14.6622 47.8501 16.1977 50.935 18.3805C51.7243 18.9396 51.8186 20.1031 51.0008 20.6493C47.5826 22.3525 44.2433 24.6428 40.812 26.2708C38.9176 27.1697 37.4333 26.5654 38.4791 24.4665C41.4478 22.8385 44.3705 21.0859 47.4291 19.6428Z" fill="#F5F5F5" fill-opacity="0.15"/>
<path d="M14.1662 18.5677L24.833 12.6925C26.3086 11.5183 28.1153 13.3333 26.8348 14.6559L18.058 19.5656L26.5805 24.243C28.0911 25.3656 26.8918 27.2968 25.1553 26.6043C21.9805 24.5828 18.1896 23.0774 15.052 21.0624C13.9843 20.3763 13.3221 19.8538 14.1684 18.5677H14.1662Z" fill="#F5F5F5" fill-opacity="0.15"/>
<path d="M34.9004 8.58717C35.5341 8.55491 36.1787 9.16136 36.2642 9.75921C34.9815 16.4001 33.2385 22.9893 31.7234 29.5958C31.1358 31.1356 28.6714 30.4947 29.0858 28.785L33.5586 9.82588C33.655 9.13556 34.1791 8.62373 34.8982 8.58717H34.9004Z" fill="#F5F5F5" fill-opacity="0.15"/>
<path d="M69.8588 44.058C62.6212 51.157 51.2638 41.1462 57.6879 33.3269C64.783 24.6903 77.8813 36.1914 69.8588 44.058ZM63.6429 33.0494C56.4053 33.7054 57.2933 44.6279 65.0593 43.6172C71.4966 42.7785 70.5034 32.4279 63.6429 33.0494Z" fill="#F5F5F5" fill-opacity="0.15"/>
</svg>
