<svg width="64" height="63" viewBox="0 0 64 63" fill="none" xmlns="http://www.w3.org/2000/svg">
<path d="M33.785 34.9292V57.3412C33.785 61.8883 22.9215 63.0166 19.76 63.0006C16.3891 62.9829 7.4977 61.9256 6.40602 58.0129C6.10958 50.3242 6.36875 42.5698 6.27467 34.8581C6.13621 34.5578 6.71844 33.6551 6.67939 33.6036C6.59773 33.4934 4.78182 32.4877 4.35757 32.1341C-0.261217 28.2729 -1.35822 21.5633 1.78901 16.4014C4.13568 12.5527 8.43673 10.4808 12.9064 10.5714C13.7016 7.07447 15.8726 3.91514 18.9151 2.02096C24.7108 -1.5897 32.0987 -0.217932 36.4051 4.98483C37.1399 4.8107 37.7222 4.38602 38.4659 4.16746C43.4451 2.70685 48.4082 5.66183 49.8585 10.5288C54.3051 10.4044 58.5191 11.6944 61.2847 15.3175C65.6923 21.0907 64.274 29.3195 58.0896 33.1238C56.9784 33.8079 54.3903 34.9309 53.1175 34.9309H33.785V34.9292ZM24.5883 2.11514C20.1062 2.55048 16.3998 5.95857 15.1164 10.1912C14.7738 11.3195 15.0827 12.5562 13.6537 12.7179C11.6674 12.9418 10.5313 12.5598 8.44738 13.3594C0.118653 16.556 -0.12986 28.5607 8.07461 31.9973C10.7106 30.3412 13.9005 29.6233 16.9767 29.3444C22.199 28.8717 28.9177 29.435 33.0555 32.9319C39.3127 32.621 45.9817 33.3566 52.1909 32.9408C62.135 32.2762 65.4455 19.2391 56.9908 14.159C53.7903 12.2364 52.3649 13.107 49.1254 12.7215C47.794 12.5633 48.1047 11.6962 47.771 10.7527C46.3775 6.81149 42.254 4.76627 38.3026 6.4028C37.6689 6.66578 36.5666 7.61287 36.0057 7.51159C35.4057 7.40319 34.9104 6.35838 34.5146 5.9337C31.82 3.04979 28.5751 1.72955 24.5865 2.11692L24.5883 2.11514ZM17.4134 31.3771C15.1838 31.5246 12.0047 32.0968 10.0432 33.1771C7.27582 34.7017 8.15449 35.9722 10.5739 37.0792C15.2176 39.2044 23.9865 39.2186 28.7313 37.3866C34.0513 35.3325 31.1579 33.266 27.4053 32.2016C24.3043 31.3221 20.6263 31.1639 17.4134 31.3754V31.3771ZM31.6585 38.2555C30.8774 38.6091 30.1443 39.016 29.3349 39.3217C24.448 41.1661 17.353 41.1785 12.3348 39.8405C10.9006 39.4585 9.52308 38.9219 8.27164 38.1222V42.5787C8.27164 42.8399 8.92133 43.5027 9.15919 43.6857C13.2543 46.8557 26.761 46.941 30.794 43.7088C30.9644 43.572 31.6585 42.863 31.6585 42.712V38.2555ZM31.6585 45.571C30.8792 46.0561 30.068 46.4559 29.2035 46.7704C24.0682 48.6379 15.3365 48.6522 10.2686 46.5661C9.58344 46.2836 8.9586 45.8464 8.27342 45.571V49.8942C8.27342 50.6743 10.1905 51.6978 10.8402 51.9803C15.3418 53.9349 22.7546 53.9225 27.4355 52.5827C28.2396 52.3517 31.6585 51.0972 31.6585 50.159V45.571ZM31.6585 53.018C30.7407 53.4622 29.8319 53.9456 28.8627 54.2761C24.1534 55.8806 17.5429 55.9286 12.7342 54.738C11.1597 54.3471 9.63669 53.7696 8.27342 52.8847V57.3412C8.27342 58.1675 10.471 59.2301 11.1615 59.5055C15.9755 61.4192 25.6036 61.4903 30.1532 58.8942C30.5171 58.6863 31.6585 57.8938 31.6585 57.4745V53.018Z" fill="#F5F5F5" fill-opacity="0.15"/>
<path d="M59.9208 51.7831C59.5001 52.2949 57.725 52.2043 57.3735 52.6218C56.6067 53.5352 57.9895 54.3241 58.2682 55.1859C58.4137 55.6372 58.2983 55.854 58.0392 56.2147C57.78 56.5754 55.3606 59.0826 55.0375 59.3261C53.7275 60.3105 52.8701 58.3292 51.8246 58.4927C50.6086 58.6846 51.356 60.6783 50.3921 61.3269C49.1779 61.2647 45.8851 61.9257 44.955 61.3215C44.2964 60.8951 44.4136 59.0293 44.0586 58.7273C42.9616 57.7926 41.9995 59.9871 40.8208 59.6104C40.6344 59.5517 39.4859 58.5052 39.2303 58.2724C38.696 57.7873 36.9032 56.1987 36.999 55.5075C37.0949 54.8163 38.2274 53.9136 38.1475 53.2526C37.986 51.8986 35.902 52.7462 35.3162 51.6836C35.3074 50.6317 34.7038 46.6888 35.4742 46.0935C36.0405 45.6564 37.5617 45.7594 37.8901 45.3561C38.799 44.2438 36.6387 43.3375 37.031 42.1044C37.2848 41.3065 39.8303 39.519 40.3291 38.6056C41.2166 37.6497 42.7361 39.5883 43.2615 39.5581C44.4881 39.4888 44.1154 38.0548 44.481 37.1895C44.7065 36.6564 45.0047 36.5658 45.5372 36.5178C46.3999 36.4396 49.2986 36.3845 50.0584 36.5267C51.2619 36.7541 50.5305 39.7109 52.0571 39.5367C52.3021 39.5083 53.4665 38.3338 54.0807 38.2769C55.0091 38.1916 57.3291 41.2124 58.1634 41.8467C58.719 42.7565 57.0487 44.0056 57.0984 44.6507C57.2084 46.0686 59.6687 45.2459 60.0344 46.3583C60.2048 46.8789 60.1604 50.3634 60.0983 51.0937C60.077 51.3371 60.0859 51.5806 59.9208 51.7814V51.7831ZM48.9134 38.5381H46.2916C45.9686 39.4159 46.2543 40.427 45.3029 40.9423C45.1183 41.0418 43.6734 41.6513 43.5189 41.6832C42.4166 41.9142 42.0296 40.9849 41.0888 40.7095C40.835 41.1129 39.4682 42.1381 39.3812 42.4722C39.2605 42.9342 40.3806 43.7995 40.4214 44.4481C40.432 44.6222 39.5978 46.7829 39.4806 46.9517C39.0865 47.5204 37.2955 47.5115 37.2316 47.7869L37.2546 50.3421C37.8511 50.6175 38.893 50.5127 39.3741 50.948C39.4682 51.0333 40.3681 53.0821 40.4019 53.2526C40.5776 54.1535 39.2374 55.1806 39.4202 55.5448C39.4788 55.6621 41.064 57.2329 41.1829 57.2631C41.8184 57.2098 42.5267 56.2538 43.1586 56.2147C43.2811 56.2076 45.2727 56.977 45.4627 57.089C46.1816 57.5119 46.1851 58.6526 46.2721 59.4043L49.0554 59.3989C49.2347 58.6011 49.1176 57.5723 49.872 57.0907C50.0246 56.993 51.6755 56.2698 51.8175 56.2414C52.8009 56.0441 53.8553 57.4159 54.2405 57.2205C54.4411 57.1174 55.9179 55.5253 55.9268 55.3476C55.9446 55.0189 54.9274 54.1962 54.8973 53.4836C54.8884 53.2509 55.6464 51.3034 55.8061 51.0617C56.296 50.3207 57.5137 50.6388 57.9646 50.2977C58.2575 50.0755 58.0214 48.0676 58.0871 47.5754C57.5173 47.4439 56.312 47.4475 55.8949 47.0441C55.7848 46.9375 54.9807 45.0291 54.9345 44.8124C54.702 43.7196 56.0244 42.9413 55.7742 42.3851C55.7245 42.2732 54.1446 40.6828 54.0221 40.6615C53.8304 40.6278 52.7938 41.6992 52.1778 41.7259C51.9542 41.7348 49.9803 40.9938 49.7318 40.8428C49.043 40.4234 49.2099 39.2151 48.9081 38.5417L48.9134 38.5381Z" fill="#F5F5F5" fill-opacity="0.15"/>
<path d="M10.364 48.2543C11.7894 47.9629 12.8065 49.9956 11.3332 50.4381C9.78529 50.9019 8.84626 48.5635 10.364 48.2543Z" fill="#F5F5F5" fill-opacity="0.15"/>
<path d="M10.3649 40.8055C11.8489 40.507 12.8039 42.5504 11.3341 42.9893C9.8643 43.4282 8.82232 41.1165 10.3649 40.8055Z" fill="#F5F5F5" fill-opacity="0.15"/>
<path d="M10.364 55.7011C11.7894 55.4096 12.8065 57.4424 11.3332 57.8849C9.78529 58.3486 8.84626 56.0102 10.364 55.7011Z" fill="#F5F5F5" fill-opacity="0.15"/>
<path d="M46.9065 43.7426C49.8301 43.3464 52.6134 45.4982 52.901 48.4461C53.3519 53.0571 48.0213 56.0103 44.3699 53.1282C40.7186 50.2461 42.3676 44.3557 46.9065 43.7426ZM47.3095 45.7345C43.0155 46.1823 43.7469 52.8208 48.1917 52.2096C52.1821 51.6605 51.4845 45.2992 47.3095 45.7345Z" fill="#F5F5F5" fill-opacity="0.15"/>
</svg>
