<svg width="32" height="32" viewBox="0 0 32 32" fill="none" xmlns="http://www.w3.org/2000/svg">
<circle cx="16" cy="16" r="16" fill="white" fill-opacity="0.1"/>
<path d="M22.6667 11.3333H9.33333C8.59695 11.3333 8 11.9303 8 12.6667V23.3333C8 24.0697 8.59695 24.6667 9.33333 24.6667H22.6667C23.403 24.6667 24 24.0697 24 23.3333V12.6667C24 11.9303 23.403 11.3333 22.6667 11.3333Z" stroke="white" stroke-width="2" stroke-linecap="round" stroke-linejoin="round"/>
<path d="M16 19.3333C17.8409 19.3333 19.3333 17.8409 19.3333 16C19.3333 14.1591 17.8409 12.6667 16 12.6667C14.1591 12.6667 12.6667 14.1591 12.6667 16C12.6667 17.8409 14.1591 19.3333 16 19.3333Z" stroke="white" stroke-width="2" stroke-linecap="round" stroke-linejoin="round"/>
<path d="M20.6667 13.3333H20.675C20.9163 13.3333 21.1476 13.249 21.3189 13.0776C21.4903 12.9063 21.5747 12.675 21.5747 12.4337C21.5747 12.1923 21.4903 11.961 21.3189 11.7897C21.1476 11.6183 20.9163 11.534 20.675 11.534C20.4337 11.534 20.2023 11.6183 20.031 11.7897C19.8597 11.961 19.7753 12.1923 19.7753 12.4337C19.7753 12.675 19.8597 12.9063 20.031 13.0776C20.2023 13.249 20.4337 13.3333 20.675 13.3333H20.6667Z" fill="white" stroke="white" stroke-width="2" stroke-linecap="round" stroke-linejoin="round"/>
</svg>

