<svg width="114" height="25" viewBox="0 0 114 25" fill="none" xmlns="http://www.w3.org/2000/svg">
<g clip-path="url(#clip0_1846_799)">
<path d="M-0.000457328 16.3437C-0.000457328 16.0308 0.141643 15.7194 0.395929 15.5108L5.55194 10.7703L7.30801 12.3847L2.5768 16.7345V18.584C2.5768 18.8969 2.85951 19.1569 3.22897 19.1569H14.4774V21.5015H3.76746C3.34265 21.5015 2.94626 21.3458 2.66206 21.0842L0.451273 19.0526C0.140148 18.7661 -0.00195312 18.4018 -0.00195312 18.0111V16.3437H-0.000457328Z" fill="white"/>
<path d="M8.18739 13.9446L12.9186 9.59488V7.74537C12.9186 7.43245 12.6359 7.17246 12.2664 7.17246H1.01953V4.82788H11.7294C12.1542 4.82788 12.5506 4.98356 12.8348 5.24511L15.0441 7.27677C15.3553 7.56322 15.4974 7.92752 15.4974 8.31828V9.98564C15.4974 10.2986 15.3553 10.6099 15.1294 10.8185L9.97337 15.5575L8.18889 13.9431L8.18739 13.9446Z" fill="white"/>
<path d="M30.439 15.4253H19.9206C20.0821 18.0034 21.5121 19.6396 24.0205 19.6396C25.6659 19.6396 27.4459 18.8207 27.8229 17.1362H30.1698C29.6567 19.8887 26.9329 21.5 24.0205 21.5C20.109 21.5 17.6006 18.897 17.6006 14.7808C17.6006 10.6645 20.109 8.08643 24.0205 8.08643C27.9321 8.08643 30.439 10.5898 30.439 14.6313V15.4253ZM28.0921 13.5664C27.8229 11.8555 26.6891 9.94683 24.0191 9.94683C21.6991 9.94683 20.3244 11.3355 19.9729 13.5664H28.0921Z" fill="white"/>
<path d="M52.5029 21.2027H50.2368V12.6246C50.2368 11.5083 50.1022 9.97174 47.5937 9.97174C45.6253 9.97174 45.0584 11.1378 44.816 11.6329H43.926V21.2027H41.6599V12.6246C41.6599 11.5083 41.5253 9.97174 39.0168 9.97174C37.0484 9.97174 36.4815 11.1378 36.2391 11.6329H35.3491V21.2027H33.083V8.40869H35.3491V10.0947H36.2391C36.6699 9.0034 37.9384 8.08643 39.4222 8.08643C41.0945 8.08643 42.5783 8.60641 43.3606 10.0947H44.2237C44.9522 9.0283 46.1653 8.08643 47.9991 8.08643C50.4806 8.08643 52.5029 9.22758 52.5029 12.8721V21.2027Z" fill="white"/>
<path d="M58.4093 6.0781H56.1162V3.5H58.4093V6.0781ZM56.1162 8.38376H58.4093V21.2026H56.1162V8.38376Z" fill="white"/>
<path d="M73.5674 21.2027H71.3013V12.6246C71.3013 11.5083 71.1667 9.97174 68.6313 9.97174C65.7998 9.97174 65.4483 11.5332 65.2059 12.0299H64.3159V21.2027H62.0498V8.40869H64.3159V10.4668H65.2059C65.9344 8.75586 67.2821 8.08643 69.0621 8.08643C71.5436 8.08643 73.566 9.22758 73.566 12.8721V21.2027H73.5674Z" fill="white"/>
<path d="M89.1299 15.4253H78.6115C78.773 18.0034 80.203 19.6396 82.7114 19.6396C84.3568 19.6396 86.1368 18.8207 86.5138 17.1362H88.8607C88.3476 19.8887 85.6238 21.5 82.7114 21.5C78.8014 21.5 76.293 18.897 76.293 14.7808C76.293 10.6645 78.8014 8.08643 82.7114 8.08643C86.6215 8.08643 89.1299 10.5898 89.1299 14.6313V15.4253ZM86.783 13.5664C86.5138 11.8555 85.3799 9.94683 82.7099 9.94683C80.39 9.94683 79.0153 11.3355 78.6638 13.5664H86.7815H86.783Z" fill="white"/>
<path d="M103.289 21.2027H101.023V12.6246C101.023 11.5083 100.888 9.97174 98.353 9.97174C95.5214 9.97174 95.1699 11.5332 94.9276 12.0299H94.0376V21.2027H91.7715V8.40869H94.0376V10.4668H94.9276C95.6561 8.75586 97.0038 8.08643 98.7838 8.08643C101.265 8.08643 103.288 9.22758 103.288 12.8721V21.2027H103.289Z" fill="white"/>
<path d="M109.521 10.2442V18.2026C109.521 18.8223 109.521 19.3438 111.059 19.3438H112.973V21.2026H109.9C107.823 21.2026 107.23 19.7392 107.23 18.5996V10.2442H105.288V8.3853H107.23V4.5415H109.523V9.77243H110.413C110.682 9.15282 111.007 8.38375 111.95 8.38375H113.002V10.2426H109.523L109.521 10.2442Z" fill="white"/>
</g>
<defs>
<clipPath id="clip0_1846_799">
<rect width="113" height="18" fill="white" transform="translate(0 3.5)"/>
</clipPath>
</defs>
</svg>
